<svg xmlns="http://www.w3.org/2000/svg" xmlns:xlink="http://www.w3.org/1999/xlink" width="248.64" height="248.625" viewBox="0 0 248.64 248.625">
  <defs>
    <linearGradient id="linear-gradient" x1="0.57" y1="0.558" x2="0.175" y2="0.179" gradientUnits="objectBoundingBox">
      <stop offset="0" stop-color="#4266ae"/>
      <stop offset="1" stop-color="#022d82"/>
    </linearGradient>
  </defs>
  <g id="categories-grid-banner" data-name="categories-grid-banner" transform="translate(-14.201 -568.582)">
    <path id="Path_35887" data-name="Path 35887" d="M241.053.251C220.964,20.34,235.428,34.8,215.339,54.892S180.786,60.518,160.7,80.607s-5.624,34.551-25.712,54.639-34.551,5.624-54.639,25.712-5.622,34.549-25.709,54.636S20.088,221.216,0,241.3V11.675A11.675,11.675,0,0,1,11.688,0Z" transform="translate(14.977 569.082)" fill="url(#linear-gradient)"/>
    <path id="Subtraction_244" data-name="Subtraction 244" d="M0,246.918V238.7a40.593,40.593,0,0,1,12.745-8.267,60.959,60.959,0,0,1,13.145-3.193l.017,0c8.514-1.386,17.318-2.82,27.383-12.885s11.5-18.867,12.885-27.379a60.928,60.928,0,0,1,3.2-13.167,41.879,41.879,0,0,1,9.689-14.22,41.888,41.888,0,0,1,14.221-9.69,60.906,60.906,0,0,1,13.163-3.2c8.514-1.387,17.317-2.821,27.382-12.885s11.5-18.867,12.885-27.379a60.928,60.928,0,0,1,3.2-13.167,41.878,41.878,0,0,1,9.689-14.22,41.887,41.887,0,0,1,14.221-9.69,60.966,60.966,0,0,1,13.149-3.194l.012,0c8.513-1.386,17.317-2.82,27.383-12.886s11.5-18.936,12.886-27.512a64.6,64.6,0,0,1,2.9-12.463A39.944,39.944,0,0,1,238.468,0h8.465l-2.655,2.656c-8.717,8.7-9.891,15.84-11.249,24.1l-.012.072,0,.016c-1.463,8.986-3.121,19.171-14.523,30.573s-21.583,13.061-30.568,14.525l-.028,0c-8.282,1.347-15.434,2.51-24.168,11.243s-9.9,15.89-11.246,24.173l0,.019c-1.463,8.986-3.121,19.171-14.523,30.573-11.42,11.4-21.594,13.062-30.57,14.525-8.291,1.345-15.452,2.506-24.195,11.247s-9.9,15.889-11.245,24.172l0,.016c-1.464,8.988-3.124,19.175-14.524,30.576C46,229.914,35.823,231.556,26.846,233l-.075.012c-8.264,1.359-15.4,2.533-24.1,11.235L0,246.916Z" transform="translate(14.701 569.082)" fill="#fff" stroke="rgba(0,0,0,0)" stroke-width="1"/>
  </g>
</svg>
